<svg width="512" height="512" viewBox="0 0 512 512" fill="none" xmlns="http://www.w3.org/2000/svg">
<path d="M256 0C114.844 0 0 114.844 0 256C0 397.156 114.844 512 256 512C397.156 512 512 397.156 512 256C512 114.844 397.156 0 256 0ZM298.667 416C298.667 421.896 293.896 426.667 288 426.667H224C218.104 426.667 213.333 421.896 213.333 416V256H202.666C196.77 256 191.999 251.229 191.999 245.333V202.666C191.999 196.77 196.77 191.999 202.666 191.999H288C293.896 191.999 298.667 196.77 298.667 202.666V416ZM256 170.667C232.469 170.667 213.333 151.532 213.333 128C213.333 104.468 232.469 85.333 256 85.333C279.531 85.333 298.667 104.468 298.667 128C298.667 151.532 279.531 170.667 256 170.667Z" fill="#204051"/>
</svg>
