<svg width="512" height="512" viewBox="0 0 512 512" fill="none" xmlns="http://www.w3.org/2000/svg">
<g clip-path="url(#clip0)">
<path d="M220.105 302.34C217.168 305.277 217.168 310.035 220.105 312.973C220.105 312.973 230.484 323.352 230.484 323.355C233.336 326.207 238.191 326.285 241.117 323.355C244.054 320.418 244.054 315.656 241.117 312.723L230.738 302.34C227.801 299.406 223.039 299.406 220.105 302.34Z" fill="#204051"/>
<path d="M334.832 187.613C331.894 190.551 331.894 195.312 334.832 198.246C334.832 198.246 345.211 208.625 345.215 208.629C348.039 211.453 352.914 211.563 355.847 208.629C358.781 205.691 358.781 200.934 355.847 197.996L345.465 187.613C342.527 184.676 337.765 184.676 334.832 187.613Z" fill="#204051"/>
<path d="M278.789 266.609C274.648 266.332 271.062 269.465 270.785 273.605C270.504 277.75 273.64 281.336 277.781 281.613C287.515 282.262 297.156 278.402 304.023 271.535C311.074 264.48 314.75 254.918 314.105 245.293C313.824 241.148 310.25 238.012 306.097 238.293C301.953 238.57 298.82 242.156 299.097 246.297C299.457 251.594 297.375 256.918 293.39 260.902C289.406 264.883 284.086 266.965 278.789 266.609V266.609Z" fill="#204051"/>
<path d="M426.25 156.973C423.59 160.16 424.015 164.903 427.199 167.563C430.387 170.227 435.129 169.801 437.789 166.613L506.648 84.2072C514.281 75.0744 513.687 61.8361 505.269 53.4181L495.582 43.7306C487.164 35.3127 473.926 34.7228 464.793 42.3517L108.176 340.332C82.4413 362.391 82.9569 376.442 86.4921 393.879C88.9061 405.793 91.1874 417.043 76.9569 438.031C70.9178 446.942 72.0467 458.918 79.6405 466.512L82.4921 469.363C90.0077 476.883 102.183 478 110.969 472.043C131.957 457.817 143.211 460.098 155.121 462.512C172.562 466.047 186.613 466.559 208.73 440.754L418.762 189.391C421.426 186.203 421 181.461 417.812 178.797C414.625 176.137 409.887 176.563 407.223 179.75L197.254 431.039C179.238 452.055 170.832 450.352 158.109 447.774C145.031 445.121 128.754 441.82 102.531 459.594C99.5819 461.594 95.6249 461.231 93.1249 458.731L90.2733 455.875C87.7694 453.375 87.4061 449.418 89.4061 446.469C107.18 420.246 103.879 403.973 101.23 390.891C98.6483 378.168 96.9452 369.762 117.89 351.809L474.437 53.8947C477.555 51.2853 482.074 51.4885 484.949 54.3635L494.637 64.0549C497.512 66.926 497.715 71.4455 495.105 74.5666L426.25 156.973Z" fill="#204051"/>
<path d="M66.617 309.988C42.9881 309.637 22.0389 293.426 15.6678 270.574C14.5545 266.574 10.4061 264.234 6.4061 265.352C2.4061 266.465 0.0701641 270.613 1.18345 274.613C9.32798 303.84 36.1444 324.57 66.3905 325.024C66.7459 325.031 67.1014 325.035 67.453 325.035C85.6327 325.035 102.73 318.035 115.699 305.258C130.609 290.57 138.109 269.344 135.777 248.555C135.476 245.906 136.473 243.238 138.5 241.227C158.031 221.848 160.851 190.281 145.004 167.777C144.707 167.356 144.801 166.664 145.223 166.172C151.789 158.43 155.41 148.574 155.41 138.414C155.41 113.84 133.984 93.9415 109.535 95.5704C88.2577 96.9884 71.1014 114.109 69.6288 135.391C69.3983 138.738 69.5545 142.098 70.0897 145.371C70.5702 148.317 69.328 151.234 66.9256 152.809C54.2967 161.086 45.3006 174.277 42.2499 188.992C41.8006 191.156 40.1952 193.082 37.9569 194.145C18.6756 203.309 4.54673 221.219 0.163914 242.055C-0.691554 246.117 1.9061 250.106 5.97251 250.961C10.035 251.817 14.0233 249.215 14.8788 245.149C18.3006 228.879 29.3436 214.891 44.4139 207.727C50.8788 204.656 55.5741 198.793 56.9725 192.047C59.2186 181.211 65.8514 171.496 75.1678 165.387C82.5389 160.559 86.3709 151.75 84.9295 142.945C84.578 140.813 84.4803 138.621 84.6288 136.43C85.5858 122.613 96.7225 111.496 110.535 110.574C126.449 109.512 140.371 122.469 140.371 138.414C140.371 145.012 138.023 151.414 133.758 156.442C128.887 162.18 128.457 170.402 132.711 176.442C144.398 193.031 142.285 216.293 127.91 230.551C122.598 235.82 120.019 242.992 120.832 250.234C122.664 266.551 116.84 283.027 105.148 294.547C94.8163 304.723 81.1405 310.203 66.617 309.988V309.988Z" fill="#204051"/>
</g>
<defs>
<clipPath id="clip0">
<rect width="512" height="512" fill="white"/>
</clipPath>
</defs>
</svg>
