<svg height="512pt" viewBox="0 -37 512.00047 512" width="512pt" xmlns="http://www.w3.org/2000/svg"><path d="m220.105469 265.339844c-2.9375 2.9375-2.9375 7.695312 0 10.632812 0 0 10.378906 10.378906 10.378906 10.382813 2.851563 2.851562 7.707031 2.929687 10.632813 0 2.9375-2.9375 2.9375-7.699219 0-10.632813l-10.378907-10.382812c-2.9375-2.933594-7.699219-2.933594-10.632812 0zm0 0"/><path d="m334.832031 150.613281c-2.9375 2.9375-2.9375 7.699219 0 10.632813 0 0 10.378907 10.378906 10.382813 10.382812 2.824218 2.824219 7.699218 2.933594 10.632812 0 2.933594-2.9375 2.933594-7.695312 0-10.632812l-10.382812-10.382813c-2.9375-2.9375-7.699219-2.9375-10.632813 0zm0 0"/><path d="m278.789062 229.609375c-4.140624-.277344-7.726562 2.855469-8.003906 6.996094-.28125 4.144531 2.855469 7.730469 6.996094 8.007812 9.734375.648438 19.375-3.210937 26.242188-10.078125 7.050781-7.054687 10.726562-16.617187 10.082031-26.242187-.28125-4.144531-3.855469-7.28125-8.007813-7-4.144531.277343-7.277344 3.863281-7 8.003906.359375 5.296875-1.722656 10.621094-5.707031 14.605469-3.984375 3.980468-9.304687 6.0625-14.601563 5.707031zm0 0"/><path d="m426.25 119.972656c-2.660156 3.1875-2.234375 7.929688.949219 10.589844 3.1875 2.664062 7.929687 2.238281 10.589843-.949219l68.859376-82.40625c7.632812-9.132812 7.039062-22.371093-1.378907-30.789062l-9.6875-9.6875c-8.417969-8.417969-21.65625-9.007813-30.789062-1.378907l-356.617188 297.980469c-25.734375 22.058594-25.21875 36.109375-21.683593 53.546875 2.414062 11.914063 4.695312 23.164063-9.535157 44.152344-6.039062 8.910156-4.910156 20.886719 2.683594 28.480469 0 0 2.851563 2.851562 2.851563 2.851562 7.515624 7.519531 19.691406 8.636719 28.476562 2.679688 20.988281-14.226563 32.242188-11.945313 44.152344-9.53125 17.441406 3.535156 31.492187 4.046875 53.609375-21.757813l210.03125-251.363281c2.664062-3.1875 2.238281-7.929687-.949219-10.59375-3.1875-2.660156-7.925781-2.234375-10.589844.953125l-209.96875 251.289062c-18.015625 21.015626-26.421875 19.3125-39.144531 16.734376-13.078125-2.652344-29.355469-5.953126-55.578125 11.820312-2.949219 2-6.90625 1.636719-9.40625-.863281l-2.851562-2.855469c-2.503907-2.5-2.867188-6.457031-.867188-9.40625 17.773438-26.222656 14.472656-42.496094 11.824219-55.578125-2.582031-12.722656-4.285157-21.128906 16.660156-39.082031l356.546875-297.914063c3.117188-2.609375 7.636719-2.40625 10.511719.46875l9.6875 9.691407c2.875 2.871093 3.078125 7.390624.46875 10.511718zm0 0"/><path d="m66.617188 272.988281c-23.628907-.351562-44.578126-16.5625-50.949219-39.414062-1.113281-4-5.261719-6.339844-9.261719-5.222657-4 1.113282-6.3359375 5.261719-5.222656 9.261719 8.144531 29.226563 34.960937 49.957031 65.207031 50.410157.355469.007812.710937.011718 1.0625.011718 18.179687 0 35.277344-7 48.246094-19.777344 14.910156-14.6875 22.410156-35.914062 20.078125-56.703124-.300782-2.648438.695312-5.316407 2.722656-7.328126 19.53125-19.378906 22.351562-50.945312 6.503906-73.449218-.296875-.421875-.203125-1.113282.21875-1.605469 6.566406-7.742187 10.1875-17.597656 10.1875-27.757813 0-24.574218-21.425781-44.472656-45.875-42.84375-21.277344 1.417969-38.433594 18.539063-39.90625 39.820313-.230468 3.347656-.074218 6.707031.460938 9.980469.480468 2.945312-.761719 5.863281-3.164063 7.4375-12.628906 8.277344-21.625 21.46875-24.675781 36.183594-.449219 2.164062-2.054688 4.089843-4.292969 5.152343-19.28125 9.164063-33.410156 27.074219-37.792969 47.910157-.855468 4.0625 1.742188 8.050781 5.808594 8.90625 4.0625.855468 8.050782-1.746094 8.90625-5.8125 3.421875-16.269532 14.464844-30.257813 29.535156-37.421876 6.464844-3.070312 11.160157-8.933593 12.558594-15.679687 2.246094-10.835937 8.878906-20.550781 18.195313-26.660156 7.371093-4.828125 11.203125-13.636719 9.761719-22.441407-.351563-2.132812-.449219-4.324218-.300782-6.515624.957032-13.816407 12.09375-24.933594 25.90625-25.855469 15.914063-1.0625 29.835938 11.894531 29.835938 27.839843 0 6.597657-2.347656 13-6.613282 18.027344-4.871093 5.738282-5.300781 13.960938-1.046874 20 11.6875 16.589844 9.574218 39.851563-4.800782 54.109375-5.3125 5.269531-7.890625 12.441407-7.078125 19.683594 1.832031 16.316406-3.992187 32.792969-15.683593 44.3125-10.332032 10.175781-24.007813 15.65625-38.53125 15.441406zm0 0"/></svg>