<svg width="512" height="512" viewBox="0 0 512 512" fill="none" xmlns="http://www.w3.org/2000/svg">
<path d="M256 0C114.618 0 0 114.618 0 256C0 397.382 114.618 512 256 512C397.382 512 512 397.382 512 256C512 114.618 397.382 0 256 0ZM256 469.333C138.182 469.333 42.667 373.818 42.667 256C42.667 138.182 138.182 42.667 256 42.667C373.818 42.667 469.333 138.182 469.333 256C469.333 373.818 373.818 469.333 256 469.333Z" fill="#204051"/>
<path d="M383.996 234.667H128.038C116.256 234.667 106.705 244.218 106.705 256C106.705 267.782 116.256 277.333 128.038 277.333H383.995C395.777 277.333 405.328 267.782 405.328 256C405.328 244.218 395.778 234.667 383.996 234.667Z" fill="#204051"/>
</svg>
