<svg id="Layer_1" enable-background="new 0 0 256 256" height="512" viewBox="0 0 256 256" width="512" xmlns="http://www.w3.org/2000/svg"><path d="m187.02 179.471c-2.835.437-5.608.956-8.333 1.526 6.374-4.895 12.728-10.438 18.889-16.6 23.573-23.573 38.337-49.943 40.733-69.577-19.634 2.396-46.004 17.16-69.577 40.733-8.109 8.11-15.147 16.549-21.027 24.932 4.019-16.29 6.304-34.965 6.304-54.824 0-42.513-10.466-79.604-26.01-99.469-15.544 19.865-26.01 56.956-26.01 99.469 0 19.859 2.285 38.534 6.303 54.824-5.879-8.383-12.917-16.822-21.027-24.932-23.571-23.572-49.941-38.336-69.575-40.732 2.396 19.634 17.16 46.004 40.733 69.577 6.162 6.162 12.515 11.705 18.889 16.6-2.725-.57-5.498-1.089-8.333-1.526-26.284-4.054-50.215-1.119-63.979 6.598 10.8 11.505 32.736 21.511 59.02 25.564 12.013 1.852 23.519 2.23 33.803 1.374-2.585 1.545-5.178 3.261-7.746 5.143-13.602 9.967-23.015 22.012-25.726 31.643 10 .316 24.321-5.032 37.923-15 6.887-5.047 12.687-10.625 17.097-16.153l-6.447 31.166h15.076 15.076l-6.446-31.166c4.409 5.528 10.209 11.106 17.096 16.153 13.602 9.968 27.923 15.316 37.923 15-2.711-9.631-12.125-21.676-25.727-31.643-2.568-1.882-5.161-3.598-7.746-5.143 10.284.856 21.79.478 33.803-1.374 26.285-4.053 48.22-14.06 59.021-25.564-13.764-7.717-37.695-10.652-63.98-6.599z" fill="#7bac51"/><g fill="#99ca6f"><path d="m29.106 97.367c3.295 19.331 17.782 44.461 40.352 67.031 4.056 4.056 8.194 7.843 12.367 11.354 1.661 1.397.42 4.065-1.725 3.733-.028-.005-.057-.009-.085-.013-1.87-.289-3.725-.532-5.568-.75-5.409-4.325-10.786-9.086-16.023-14.323-23.574-23.574-38.338-49.944-40.734-69.578 3.598.439 7.425 1.298 11.416 2.546z"/><path d="m51.308 177.773c-14.403.601-26.778 3.534-35.273 8.297 10.8 11.505 32.736 21.511 59.02 25.564 5.931.915 11.737 1.467 17.336 1.691-8.843.351-18.427-.158-28.371-1.691-26.284-4.053-48.22-14.06-59.02-25.564 10.596-5.941 27.227-9.031 46.308-8.297z"/><path d="m90.077 218.151c2.337-1.713 4.695-3.28 7.049-4.715.845.006 1.686.004 2.52-.005 2.527-.028 3.584 3.171 1.544 4.663-.026.019-.051.038-.077.056-12.846 9.413-21.948 20.677-25.205 30.013-4.219 1.17-8.143 1.738-11.557 1.63 2.711-9.63 12.125-21.675 25.726-31.642z"/><path d="m108.294 160.486c5.572 0 9.783-5.059 8.744-10.533-2.584-13.628-4.013-28.589-4.013-44.291 0 0-.916-68.741 14.974-99.469-15.544 19.865-26.009 56.956-26.009 99.469 0 12.809.962 25.112 2.715 36.613z"/></g><path d="m226.893 97.367c-3.295 19.331-17.782 44.461-40.352 67.031-4.055 4.056-8.194 7.843-12.367 11.354-1.661 1.397-.42 4.065 1.725 3.733.028-.005.057-.009.085-.013 1.87-.289 3.725-.532 5.568-.75 5.409-4.325 10.786-9.086 16.023-14.323 23.573-23.573 38.337-49.943 40.733-69.577-3.597.438-7.423 1.297-11.415 2.545z" fill="#5d8e33"/><path d="m204.692 177.773c14.403.601 26.778 3.534 35.273 8.297-10.8 11.505-32.736 21.511-59.021 25.564-5.931.915-11.737 1.467-17.335 1.691 8.843.351 18.427-.158 28.371-1.691 26.285-4.053 48.22-14.06 59.021-25.564-10.597-5.941-27.228-9.031-46.309-8.297z" fill="#5d8e33"/><path d="m165.923 218.151c-2.337-1.713-4.695-3.28-7.048-4.715-.846.006-1.686.004-2.52-.005-2.527-.028-3.584 3.171-1.544 4.663.026.019.051.038.077.056 12.846 9.413 21.948 20.677 25.205 30.013 4.219 1.17 8.143 1.738 11.557 1.63-2.712-9.63-12.126-21.675-25.727-31.642z" fill="#5d8e33"/><path d="m147.706 160.486c-5.572 0-9.783-5.059-8.744-10.533 2.584-13.628 4.012-28.589 4.012-44.291 0 0 .917-68.741-14.974-99.469 15.544 19.865 26.009 56.956 26.009 99.469 0 12.809-.962 25.112-2.715 36.613z" fill="#5d8e33"/><path d="m112.347 81.123c-.076 0-.152-.004-.229-.013-1.098-.126-1.886-1.117-1.761-2.214.465-4.074 1.031-8.145 1.684-12.099.179-1.09 1.209-1.831 2.299-1.647 1.09.18 1.828 1.209 1.647 2.299-.641 3.889-1.198 7.893-1.655 11.901-.117 1.02-.982 1.773-1.985 1.773z" fill="#690589"/><path d="m190.776 251.808c-10.802.001-25.001-5.705-38.232-15.4-4.535-3.323-8.744-6.983-12.43-10.793l4.921 23.788c.122.589-.028 1.202-.408 1.668-.38.467-.949.737-1.551.737h-30.153c-.602 0-1.171-.27-1.551-.737-.38-.466-.53-1.079-.408-1.668l4.921-23.788c-3.686 3.81-7.895 7.47-12.43 10.793-13.616 9.978-28.256 15.743-39.168 15.386-.615-.02-1.186-.321-1.55-.817-.363-.496-.479-1.132-.312-1.724 2.958-10.506 12.853-22.736 26.47-32.714.521-.382 1.047-.76 1.575-1.132-8.626.218-17.593-.382-26.754-1.795-25.679-3.96-48.736-13.988-60.174-26.171-.421-.449-.612-1.066-.519-1.674.094-.608.462-1.139.999-1.44 14.577-8.172 39.586-10.79 65.262-6.831.193.03.386.06.58.09-4.421-3.702-8.725-7.643-12.854-11.773-22.953-22.953-38.78-50.062-41.304-70.749-.074-.61.136-1.221.571-1.656.434-.435 1.042-.646 1.656-.571 20.687 2.524 47.796 18.351 70.749 41.304 5.639 5.639 10.875 11.544 15.64 17.632-2.843-14.478-4.331-30.232-4.331-46.11 0-41.277 10.129-79.863 26.435-100.701.759-.969 2.392-.969 3.15 0 16.305 20.838 26.435 59.424 26.435 100.701 0 15.878-1.488 31.631-4.331 46.109 4.764-6.087 10-11.993 15.64-17.632 22.952-22.953 50.062-38.779 70.749-41.304.611-.074 1.221.136 1.656.571s.646 1.046.571 1.656c-2.524 20.687-18.352 47.796-41.304 70.749-4.129 4.129-8.433 8.07-12.855 11.773.193-.031.387-.061.579-.091h.001c25.677-3.959 50.685-1.342 65.262 6.831.537.301.905.832.999 1.44s-.098 1.225-.519 1.674c-11.438 12.184-34.495 22.212-60.174 26.171-9.162 1.413-18.13 2.017-26.754 1.795.528.372 1.054.75 1.575 1.132 13.617 9.978 23.512 22.208 26.47 32.714.167.592.051 1.228-.312 1.724-.364.496-.936.797-1.55.817-.311.011-.623.016-.938.016zm-75.397-4.001h25.241l-5.949-28.761c-.188-.906.271-1.823 1.109-2.216.838-.394 1.837-.16 2.413.563 4.444 5.571 10.225 11.03 16.715 15.787 11.593 8.496 24.287 13.899 33.936 14.559-3.536-9.004-12.512-19.48-24.104-27.975-2.467-1.808-5.021-3.504-7.59-5.04-.798-.477-1.163-1.443-.878-2.329s1.14-1.456 2.07-1.381c10.421.867 21.947.398 33.332-1.357 23.475-3.62 44.57-12.361 55.979-23.071-14.106-6.778-36.855-8.758-60.329-5.138-2.621.404-5.312.898-8.228 1.508-.916.19-1.838-.274-2.227-1.123-.39-.848-.141-1.852.599-2.421 6.48-4.977 12.77-10.504 18.693-16.428 21.382-21.383 36.394-46.298 39.774-65.791-19.493 3.381-44.407 18.392-65.79 39.774-7.786 7.786-14.785 16.085-20.804 24.666-.552.788-1.589 1.07-2.465.672s-1.345-1.365-1.114-2.3c4.086-16.562 6.246-35.355 6.246-54.345 0-39.064-9.154-75.528-24.01-96.138-14.856 20.61-24.01 57.074-24.01 96.138 0 18.99 2.16 37.782 6.246 54.345.23.935-.238 1.901-1.114 2.3-.875.398-1.913.116-2.465-.672-6.02-8.583-13.02-16.882-20.804-24.666-21.383-21.382-46.297-36.393-65.79-39.774 3.381 19.493 18.392 44.408 39.774 65.791 5.925 5.925 12.215 11.452 18.693 16.427.74.568.989 1.573.599 2.421-.389.848-1.312 1.314-2.227 1.123-2.914-.61-5.606-1.103-8.229-1.508-23.474-3.618-46.223-1.64-60.329 5.138 11.41 10.71 32.504 19.451 55.979 23.071 11.384 1.755 22.91 2.225 33.332 1.357.938-.074 1.786.496 2.07 1.381.285.886-.08 1.851-.878 2.329-2.569 1.536-5.123 3.232-7.59 5.04-11.593 8.495-20.569 18.972-24.104 27.975 9.65-.659 22.343-6.062 33.937-14.559 6.491-4.756 12.271-10.215 16.715-15.787.577-.723 1.573-.958 2.413-.563.837.393 1.296 1.31 1.109 2.216z" fill="#690589"/></svg>